<?xml version="1.0" encoding="UTF-8"?>
<svg xmlns="http://www.w3.org/2000/svg" xmlns:xlink="http://www.w3.org/1999/xlink" width="32pt" height="32pt" viewBox="0 0 32 32" version="1.1">
<g id="surface1">
<path style=" stroke:none;fill-rule:nonzero;fill:rgb(0%,0%,0%);fill-opacity:1;" d="M 25.90625 17.308594 C 25.960938 16.878906 26 16.453125 26 16 C 26 15.546875 25.960938 15.121094 25.90625 14.691406 L 28.71875 12.492188 C 28.972656 12.292969 29.039062 11.933594 28.878906 11.640625 L 26.214844 7.027344 C 26.054688 6.734375 25.691406 6.625 25.398438 6.734375 L 22.078125 8.066406 C 21.386719 7.535156 20.640625 7.09375 19.828125 6.761719 L 19.320312 3.226562 C 19.28125 2.90625 19 2.667969 18.667969 2.667969 L 13.332031 2.667969 C 13 2.667969 12.71875 2.90625 12.679688 3.226562 L 12.171875 6.761719 C 11.359375 7.09375 10.613281 7.546875 9.921875 8.066406 L 6.601562 6.734375 C 6.292969 6.613281 5.945312 6.734375 5.785156 7.027344 L 3.121094 11.640625 C 2.945312 11.933594 3.027344 12.292969 3.28125 12.492188 L 6.09375 14.691406 C 6.039062 15.121094 6 15.558594 6 16 C 6 16.441406 6.039062 16.878906 6.09375 17.308594 L 3.28125 19.507812 C 3.027344 19.707031 2.960938 20.066406 3.121094 20.359375 L 5.785156 24.972656 C 5.945312 25.265625 6.308594 25.375 6.601562 25.265625 L 9.921875 23.933594 C 10.613281 24.464844 11.359375 24.90625 12.171875 25.238281 L 12.679688 28.773438 C 12.71875 29.09375 13 29.332031 13.332031 29.332031 L 18.667969 29.332031 C 19 29.332031 19.28125 29.09375 19.320312 28.773438 L 19.828125 25.238281 C 20.640625 24.90625 21.386719 24.453125 22.078125 23.933594 L 25.398438 25.265625 C 25.707031 25.386719 26.054688 25.265625 26.214844 24.972656 L 28.878906 20.359375 C 29.039062 20.066406 28.972656 19.707031 28.71875 19.507812 Z M 16 20.667969 C 13.425781 20.667969 11.332031 18.574219 11.332031 16 C 11.332031 13.425781 13.425781 11.332031 16 11.332031 C 18.574219 11.332031 20.667969 13.425781 20.667969 16 C 20.667969 18.574219 18.574219 20.667969 16 20.667969 Z M 16 20.667969 "/>
</g>
</svg>
